<svg width="309" height="200" viewBox="0 0 309 200" fill="none" xmlns="http://www.w3.org/2000/svg">
<g filter="url(#filter0_d_104_7)">
<path d="M197.014 43.1282C197.014 43.1282 227.16 68.7375 254.818 91.4932C282.476 114.249 304.427 116.151 304.5 121.639C304.5 127.054 297.11 129.688 269.598 131.297C242.013 132.834 204.77 155.956 177.844 151.2C177.844 151.2 158.454 123.468 154.356 104.956C150.186 86.3713 197.014 43.1282 197.014 43.1282Z" fill="#EAB363"/>
<path d="M177.844 151.2C177.844 151.2 158.454 123.468 154.356 104.956C150.186 86.3713 197.014 43.1282 197.014 43.1282C197.014 43.1282 198.477 44.3721 201.038 46.494C198.185 64.8595 188.892 124.346 181.575 151.712C180.307 151.565 179.063 151.395 177.844 151.2Z" fill="#FFD399"/>
<path d="M174.331 134.736C174.331 134.736 161.527 106.2 163.502 98.1516C165.405 90.0298 193.282 55.8596 193.282 55.8596C193.721 64.5668 174.331 134.736 174.331 134.736Z" fill="#8C5E28"/>
<path d="M137.6 101.371C137.6 101.371 148.21 108.615 147.405 111.761C146.6 114.981 140.015 116.81 140.015 116.81C140.015 116.81 133.43 121.493 131.235 121.493C129.04 121.493 126.698 116.078 126.698 116.078L123.918 101.371H137.6Z" fill="#FFD399"/>
<path d="M126.698 132.249C126.698 132.249 126.552 138.614 108.552 142.419C90.5524 146.151 42.4801 152.004 20.3097 156.98C-1.86065 161.955 3.7734 138.175 10.4318 131.444C17.0903 124.712 41.0167 73.4935 48.0409 61.7863C55.0652 50.1524 66.4065 44.7379 66.4065 44.7379C91.3573 52.128 126.698 132.249 126.698 132.249Z" fill="#EAB363"/>
<path d="M126.698 132.249C126.698 132.249 126.698 133.273 125.454 134.809C108.698 124.712 70.9428 60.9083 65.382 53.5182C63.4064 50.8109 63.26 48.3232 63.9917 46.1281C65.5283 45.1769 66.4063 44.7379 66.4063 44.7379C91.3571 52.128 126.698 132.249 126.698 132.249Z" fill="#FFD399"/>
<path d="M131.893 121.42C131.649 121.468 131.43 121.493 131.235 121.493C129.04 121.493 126.698 116.078 126.698 116.078L123.918 101.371H137.6C137.6 101.371 144.259 105.908 146.6 109.347L130.064 111.615L131.893 121.42Z" fill="#EAB363"/>
<path d="M157.21 136.712C157.21 136.712 151.868 146.956 146.015 146.004C140.161 145.053 137.6 132.834 137.6 132.834C149.673 130.858 157.21 136.712 157.21 136.712Z" fill="#EAB363"/>
<path d="M141.332 142.346C138.771 138.395 137.6 132.834 137.6 132.834C143.966 131.81 149.088 132.98 152.527 134.297C149.82 137.078 144.844 140.297 141.332 142.346Z" fill="#FFD399"/>
<path d="M68.4553 71.2984C69.9187 76.0544 64.0651 77.2251 54.2604 78.469C44.5289 79.6397 39.6265 87.4689 44.0167 78.469C48.4068 69.396 58.2116 57.5425 58.2116 57.5425C58.2116 57.5425 66.9919 66.4692 68.4553 71.2984Z" fill="#F4CD9A"/>
<path d="M206.453 57.5425C206.453 57.5425 230.891 81.3958 235.282 82.7128C239.672 84.0299 230.891 94.3468 223.575 90.6883C216.258 86.9567 201.038 87.4689 201.038 87.4689L206.453 57.5425Z" fill="#F4CD9A"/>
</g>
<defs>
<filter id="filter0_d_104_7" x="0.5" y="43.1282" width="308" height="122.531" filterUnits="userSpaceOnUse" color-interpolation-filters="sRGB">
<feFlood flood-opacity="0" result="BackgroundImageFix"/>
<feColorMatrix in="SourceAlpha" type="matrix" values="0 0 0 0 0 0 0 0 0 0 0 0 0 0 0 0 0 0 127 0" result="hardAlpha"/>
<feOffset dy="4"/>
<feGaussianBlur stdDeviation="2"/>
<feComposite in2="hardAlpha" operator="out"/>
<feColorMatrix type="matrix" values="0 0 0 0 0 0 0 0 0 0 0 0 0 0 0 0 0 0 0.25 0"/>
<feBlend mode="normal" in2="BackgroundImageFix" result="effect1_dropShadow_104_7"/>
<feBlend mode="normal" in="SourceGraphic" in2="effect1_dropShadow_104_7" result="shape"/>
</filter>
</defs>
</svg>
