<svg width="309" height="123" viewBox="0 0 309 123" fill="none" xmlns="http://www.w3.org/2000/svg">
<g filter="url(#filter0_d_105_33)">
<path d="M197.014 0.128174C197.014 0.128174 227.16 25.7375 254.818 48.4932C282.476 71.2489 304.427 73.1513 304.5 78.639C304.5 84.0536 297.11 86.6877 269.598 88.2974C242.013 89.834 204.77 112.956 177.844 108.2C177.844 108.2 158.454 80.4683 154.356 61.9564C150.186 43.3713 197.014 0.128174 197.014 0.128174Z" fill="#EAB363"/>
<path d="M177.844 108.2C177.844 108.2 158.454 80.4683 154.356 61.9564C150.186 43.3713 197.014 0.128174 197.014 0.128174C197.014 0.128174 198.477 1.37205 201.038 3.49397C198.185 21.8595 188.892 81.3463 181.575 108.712C180.307 108.565 179.063 108.395 177.844 108.2Z" fill="#FFD399"/>
<path d="M174.331 91.7363C174.331 91.7363 161.527 63.2002 163.502 55.1516C165.405 47.0298 193.282 12.8596 193.282 12.8596C193.721 21.5668 174.331 91.7363 174.331 91.7363Z" fill="#8C5E28"/>
<path d="M137.6 58.3711C137.6 58.3711 148.21 65.6149 147.405 68.7612C146.6 71.9806 140.015 73.8099 140.015 73.8099C140.015 73.8099 133.43 78.4927 131.235 78.4927C129.04 78.4927 126.698 73.0782 126.698 73.0782L123.918 58.3711H137.6Z" fill="#FFD399"/>
<path d="M126.698 89.2486C126.698 89.2486 126.552 95.6143 108.552 99.4191C90.5524 103.151 42.4801 109.004 20.3097 113.98C-1.86065 118.955 3.7734 95.1753 10.4318 88.4437C17.0903 81.7121 41.0167 30.4935 48.0409 18.7863C55.0652 7.1524 66.4065 1.73785 66.4065 1.73785C91.3573 9.12797 126.698 89.2486 126.698 89.2486Z" fill="#EAB363"/>
<path d="M126.698 89.2486C126.698 89.2486 126.698 90.2729 125.454 91.8095C108.698 81.7121 70.9428 17.9083 65.382 10.5182C63.4064 7.81092 63.26 5.32316 63.9917 3.12808C65.5283 2.17687 66.4063 1.73785 66.4063 1.73785C91.3571 9.12797 126.698 89.2486 126.698 89.2486Z" fill="#FFD399"/>
<path d="M131.893 78.4195C131.649 78.4683 131.43 78.4927 131.235 78.4927C129.04 78.4927 126.698 73.0782 126.698 73.0782L123.918 58.3711H137.6C137.6 58.3711 144.259 62.9076 146.6 66.3466L130.064 68.6148L131.893 78.4195Z" fill="#EAB363"/>
<path d="M157.21 93.712C157.21 93.712 151.868 103.956 146.015 103.004C140.161 102.053 137.6 89.834 137.6 89.834C149.673 87.8584 157.21 93.712 157.21 93.712Z" fill="#EAB363"/>
<path d="M141.332 99.346C138.771 95.3949 137.6 89.834 137.6 89.834C143.966 88.8096 149.088 89.9803 152.527 91.2974C149.82 94.0778 144.844 97.2973 141.332 99.346Z" fill="#FFD399"/>
<path d="M68.4553 28.2984C69.9187 33.0544 64.0651 34.2251 54.2604 35.469C44.5289 36.6397 39.6265 44.4689 44.0167 35.469C48.4068 26.396 58.2116 14.5425 58.2116 14.5425C58.2116 14.5425 66.9919 23.4692 68.4553 28.2984Z" fill="#F4CD9A"/>
<path d="M206.453 14.5425C206.453 14.5425 230.891 38.3958 235.282 39.7128C239.672 41.0299 230.891 51.3468 223.575 47.6883C216.258 43.9567 201.038 44.4689 201.038 44.4689L206.453 14.5425Z" fill="#F4CD9A"/>
</g>
<defs>
<filter id="filter0_d_105_33" x="0.5" y="0.128174" width="308" height="122.531" filterUnits="userSpaceOnUse" color-interpolation-filters="sRGB">
<feFlood flood-opacity="0" result="BackgroundImageFix"/>
<feColorMatrix in="SourceAlpha" type="matrix" values="0 0 0 0 0 0 0 0 0 0 0 0 0 0 0 0 0 0 127 0" result="hardAlpha"/>
<feOffset dy="4"/>
<feGaussianBlur stdDeviation="2"/>
<feComposite in2="hardAlpha" operator="out"/>
<feColorMatrix type="matrix" values="0 0 0 0 0 0 0 0 0 0 0 0 0 0 0 0 0 0 0.25 0"/>
<feBlend mode="normal" in2="BackgroundImageFix" result="effect1_dropShadow_105_33"/>
<feBlend mode="normal" in="SourceGraphic" in2="effect1_dropShadow_105_33" result="shape"/>
</filter>
</defs>
</svg>
